<svg width="48" height="48" viewBox="0 0 48 48" fill="none" xmlns="http://www.w3.org/2000/svg">
  <rect width="48" height="48" rx="6" fill="#336791"/>
  <circle cx="24" cy="24" r="16" fill="#336791" stroke="white" stroke-width="2"/>
  <path d="M24 10C18.5 10 14 14.9 14 21C14 25.8 17.1 28.4 18.5 29.7V33C18.5 34.5 19 36 21.5 36H26.5C29 36 29.5 34.5 29.5 33V29.7C30.9 28.4 34 25.8 34 21C34 14.9 29.5 10 24 10Z" fill="#FFFFFF" stroke="#FFFFFF" stroke-width="0.4"/>
  <path d="M19.5 25L28.5 25" stroke="#336791" stroke-width="2" stroke-linecap="round"/>
  <path d="M19.5 29L28.5 29" stroke="#336791" stroke-width="2" stroke-linecap="round"/>
  <path d="M24 25V33" stroke="#336791" stroke-width="2" stroke-linecap="round"/>
  <path d="M21 19L27 19" stroke="#336791" stroke-width="2" stroke-linecap="round"/>
  <path d="M20 15H28" stroke="#336791" stroke-width="2" stroke-linecap="round"/>
</svg> 