<svg width="48" height="48" viewBox="0 0 48 48" fill="none" xmlns="http://www.w3.org/2000/svg">
  <rect width="48" height="48" rx="6" fill="#3178C6"/>
  <path d="M14 16H34V20H27V32H21V20H14V16Z" fill="white"/>
  <path d="M33 30C33 31.6569 31.6569 33 30 33C28.3431 33 27 31.6569 27 30C27 28.3431 28.3431 27 30 27C31.6569 27 33 28.3431 33 30Z" fill="#398CCB"/>
  <path d="M21 30C21 31.6569 19.6569 33 18 33C16.3431 33 15 31.6569 15 30C15 28.3431 16.3431 27 18 27C19.6569 27 21 28.3431 21 30Z" fill="#398CCB"/>
  <path d="M24 12L34 20H14L24 12Z" fill="#805AD5"/>
</svg> 